#!OML:ASF F:\VICON\USERDATA\Patient Classification 1\PLAYGROUND\JustinFriday\JustinFriday.ASF
:FULLY-SPECIFIED
:DEGREES
3781
root 35.306 25.7205 -9.30136 28.4331 -73.4622 -16.515
lowerback 26.1181 1.61732 2.99025
upperback 3.15789 2.86408 1.36939
thorax -10.9334 1.12911 -1.15138
lowerneck -12.5442 2.15777 -3.42417
upperneck -25.0734 2.2261 0.892434
head -5.7187 0.845568 0.897106
rclavicle -4.36332e-014 -1.90833e-014
rhumerus 6.46416 3.19307 -80.0741
rradius 35.3195
rwrist 16.1208
rhand -48.9164 9.11287
rfingers 7.12502
rthumb -21.5487 -19.7083
lclavicle -4.36332e-014 -1.90833e-014
lhumerus 50.9438 -37.6871 70.8385
lradius 35.6639
lwrist -21.1845
lhand -18.545 -14.2078
lfingers 7.12502
lthumb 7.74434 15.6304
rfemur -26.8545 -5.69038 25.1068
rtibia 51.5238
rfoot 11.1828 -3.80685
rtoes 3.43529
lfemur -47.5441 15.9462 -22.2701
ltibia 65.2829
lfoot -27.2352 1.89929
ltoes 8.11035
3782
root 35.2982 25.778 -9.28188 28.9917 -73.2402 -17.2316
lowerback 26.1325 1.46611 2.81765
upperback 3.19001 2.65219 1.67456
thorax -10.9365 1.04453 -0.636813
lowerneck -12.5141 2.35587 -3.92445
upperneck -25.2378 2.53413 0.973269
head -5.79509 1.03192 1.0048
rclavicle -1.98785e-014 1.55052e-014
rhumerus 6.67241 4.00007 -79.9208
rradius 35.102
rwrist 15.4278
rhand -47.306 7.52632
rfingers 7.12502
rthumb -20.0014 -21.4643
lclavicle -1.98785e-014 1.55052e-014
lhumerus 50.3859 -36.4281 71.6871
lradius 34.7918
lwrist -22.1362
lhand -17.8974 -15.4
lfingers 7.12502
lthumb 8.36934 14.4142
rfemur -28.218 -5.44832 25.2065
rtibia 54.7017
rfoot 11.0021 -3.00877
rtoes 1.25884
lfemur -46.8641 15.8922 -21.9699
ltibia 64.2883
lfoot -26.8926 1.89408
ltoes 8.11574
3783
root 35.2923 25.8485 -9.26698 29.5471 -73.1017 -17.9814
lowerback 26.235 1.36042 2.48214
upperback 3.25617 2.45664 2.01874
thorax -10.9521 0.973839 0.008584
lowerneck -12.8831 2.58692 -4.56857
upperneck -24.9606 2.92581 1.04558
head -5.67513 1.27657 1.13525
rclavicle 3.75703e-014 2.24627e-014
rhumerus 7.06647 4.9299 -79.7207
rradius 34.8064
rwrist 14.5495
rhand -45.6539 5.48507
rfingers 7.12502
rthumb -18.4128 -23.6635
lclavicle 3.75703e-014 2.24627e-014
lhumerus 50.8075 -36.0346 71.0327
lradius 34.2154
lwrist -21.5278
lhand -18.0614 -14.7078
lfingers 7.12502
lthumb 8.21106 15.1127
rfemur -29.5972 -5.0933 25.3043
rtibia 57.9781
rfoot 10.6691 -2.42642
rtoes -0.406731
lfemur -46.1098 15.8147 -21.6448
ltibia 63.3142
lfoot -26.5981 1.94244
ltoes 8.22861
3784
root 35.2847 25.9287 -9.25695 29.6651 -73.0805 -18.3692
lowerback 26.4708 1.40986 2.13705
upperback 3.28808 2.43751 2.1165
thorax -11.06 0.978647 0.319402
lowerneck -13.627 2.76375 -4.44218
upperneck -23.7656 3.16649 0.62427
head -5.17684 1.41856 0.981992
rclavicle 3.926e-014 1.55052e-014
rhumerus 7.21144 5.21137 -79.7502
rradius 34.6744
rwrist 13.6448
rhand -44.0274 3.47577
rfingers 7.12502
rthumb -16.8476 -25.8134
lclavicle 3.926e-014 1.55052e-014
lhumerus 51.389 -36.4238 70.2045
lradius 33.5887
lwrist -21.147
lhand -18.6287 -14.1546
lfingers 7.12502
lthumb 7.66358 15.6866
rfemur -30.8294 -4.70641 25.2875
rtibia 61.236
rfoot 9.92333 -2.01519
rtoes -1.77796
lfemur -45.1395 15.6778 -21.4301
ltibia 62.2259
lfoot -26.2337 2.18423
ltoes 7.9379
3785
root 35.2762 25.9836 -9.24821 29.2739 -73.1794 -18.2357
lowerback 26.6668 1.55034 1.80355
upperback 3.22576 2.52479 2.02715
thorax -11.2447 1.02991 0.375269
lowerneck -13.7468 2.82742 -3.91652
upperneck -22.9469 3.16309 0.00328883
head -4.87604 1.41674 0.696832
rclavicle -5.68524e-014 2.38542e-014
rhumerus 6.81448 5.29373 -79.8411
rradius 35.1127
rwrist 12.7998
rhand -41.8189 1.04271
rfingers 7.12502
rthumb -14.7207 -28.4146
lclavicle -5.68524e-014 2.38542e-014
lhumerus 51.4454 -37.0758 70.1802
lradius 32.876
lwrist -20.9037
lhand -19.394 -13.4
lfingers 7.12502
lthumb 6.92482 16.4667
rfemur -32.1409 -4.19944 25.0395
rtibia 64.6512
rfoot 8.78801 -1.99991
rtoes -1.28006
lfemur -44.2381 15.8096 -21.4886
ltibia 61.1717
lfoot -25.8545 2.54456
ltoes 6.35332
3786
root 35.2711 26.04 -9.2422 28.4726 -73.1481 -17.5581
lowerback 26.7351 1.53001 1.9658
upperback 3.10926 2.49137 1.46009
thorax -11.3783 0.994724 -0.349329
lowerneck -12.9645 2.75586 -3.0931
upperneck -23.3689 2.96696 -0.0549913
head -5.1024 1.26444 0.531091
rclavicle -3.03892e-014 3.09607e-014
rhumerus 6.11848 4.77085 -80.4762
rradius 35.9429
rwrist 12.2045
rhand -38.8632 -1.95495
rfingers 7.12502
rthumb -11.8717 -31.5984
lclavicle -3.03892e-014 3.09607e-014
lhumerus 51.5851 -37.9835 69.7661
lradius 32.2272
lwrist -20.8017
lhand -18.7734 -13.5089
lfingers 7.12502
lthumb 7.52384 16.3373
rfemur -33.6162 -3.63677 24.7106
rtibia 68.1082
rfoot 7.34499 -2.47421
rtoes 0.84765
lfemur -43.4244 15.6026 -21.5982
ltibia 60.0604
lfoot -25.4422 3.32471
ltoes 3.55785
3787
root 35.2699 26.0954 -9.24349 27.8578 -72.9572 -17.0627
lowerback 26.9025 1.90098 1.85701
upperback 3.00192 2.91763 1.16899
thorax -11.5719 1.1865 -0.773995
lowerneck -12.5958 2.46113 -2.22612
upperneck -23.5881 2.4842 -0.139988
head -5.20198 0.966077 0.356823
rclavicle -3.14825e-014 9.44227e-015
rhumerus 5.23678 3.62755 -80.3077
rradius 37.1044
rwrist 11.3602
rhand -36.0207 -5.58257
rfingers 7.12502
rthumb -9.12977 -35.365
lclavicle -3.14825e-014 9.44227e-015
lhumerus 52.2966 -39.5289 69.5319
lradius 31.6392
lwrist -20.8377
lhand -17.9023 -13.4968
lfingers 7.12502
lthumb 8.36461 16.3176
rfemur -35.1366 -3.13076 24.6099
rtibia 71.5545
rfoot 5.72828 -2.88962
rtoes 1.18195
lfemur -42.6714 15.3196 -21.5424
ltibia 58.9389
lfoot -24.8677 1.79683
ltoes 9.71265
3788
root 35.2656 26.1571 -9.24335 27.9974 -72.7014 -17.3313
lowerback 26.9088 1.42818 1.04955
upperback 3.04778 2.16394 1.95275
thorax -11.6034 0.898328 0.848063
lowerneck -12.5235 2.79348 -4.51679
upperneck -23.9011 3.26017 0.943469
head -5.39009 1.4738 1.08137
rclavicle -3.09856e-014 3.59303e-014
rhumerus 5.53378 6.62245 -79.6515
rradius 38.0965
rwrist 10.101
rhand -32.7044 -8.5355
rfingers 7.12502
rthumb -5.92883 -38.4325
lclavicle -3.09856e-014 3.59303e-014
lhumerus 51.0863 -37.3645 71.1803
lradius 30.722
lwrist -21.371
lhand -18.1572 -12.2393
lfingers 7.12502
lthumb 8.11866 17.5847
rfemur -36.6348 -2.81648 24.7917
rtibia 74.847
rfoot 4.32799 -3.02599
rtoes 0.492748
lfemur -41.9449 15.1407 -21.2664
ltibia 57.7609
lfoot -24.3001 1.3713
ltoes 11.018
3789
root 35.2566 26.2311 -9.24086 27.5405 -72.6097 -16.9406
lowerback 26.8146 1.43096 0.856033
upperback 3.15259 2.07937 1.75021
thorax -11.4306 0.863395 0.762341
lowerneck -12.9439 2.77779 -4.27059
upperneck -24.0401 3.25665 1.20882
head -5.37007 1.43002 1.13108
rclavicle 9.59757e-015 2.13321e-014
rhumerus 5.63861 6.05149 -80.2221
rradius 38.9102
rwrist 9.9667
rhand -28.6808 -8.98661
rfingers 7.12502
rthumb -2.04343 -38.9566
lclavicle 9.59757e-015 2.13321e-014
lhumerus 52.0313 -37.9228 69.906
lradius 30.1779
lwrist -20.7479
lhand -18.1332 -10.8136
lfingers 7.12502
lthumb 8.14182 19.0095
rfemur -38.1168 -2.5413 24.632
rtibia 78.0025
rfoot 2.91455 -3.09657
rtoes 2.43571
lfemur -41.1014 14.9448 -21.2596
ltibia 56.4687
lfoot -23.7794 1.36466
ltoes 10.8319
3790
root 35.2439 26.3072 -9.23907 26.842 -72.5839 -16.3988
lowerback 26.8097 1.35468 0.351185
upperback 3.25119 1.83206 1.77695
thorax -11.3294 0.772156 1.17258
lowerneck -13.8766 2.91961 -4.36752
upperneck -23.0667 3.48346 1.02928
head -4.92698 1.56468 1.09915
rclavicle 1.4561e-014 1.78906e-015
rhumerus 5.57731 6.60308 -80.4183
rradius 40.274
rwrist 9.47557
rhand -26.2455 -9.54125
rfingers 7.12502
rthumb 0.308645 -39.5208
lclavicle 1.4561e-014 1.78906e-015
lhumerus 52.3418 -37.7648 69.6294
lradius 29.5093
lwrist -20.3899
lhand -17.403 -11.3073
lfingers 7.12502
lthumb 8.84642 18.4873
rfemur -39.4215 -2.17237 24.4341
rtibia 81.0346
rfoot 1.28747 -3.14549
rtoes 3.72438
lfemur -40.0303 14.7548 -21.2714
ltibia 55.0935
lfoot -23.2883 1.47485
ltoes 10.4594
3791
root 35.2356 26.3621 -9.23317 26.6359 -72.2756 -16.3942
lowerback 26.9043 1.17597 0.25495
upperback 3.34027 1.57887 1.87487
thorax -11.2769 0.659922 1.42907
lowerneck -14.0248 2.88993 -4.74146
upperneck -23.2002 3.49695 1.23201
head -4.96064 1.5867 1.22869
rclavicle -5.75482e-014 -1.87852e-014
rhumerus 5.08796 7.88647 -80.1874
rradius 42.6022
rwrist 8.14897
rhand -26.7823 -12.1291
rfingers 7.12502
rthumb -0.209786 -42.1087
lclavicle -5.75482e-014 -1.87852e-014
lhumerus 52.4105 -37.5361 69.9187
lradius 28.8148
lwrist -20.2447
lhand -17.0003 -10.6314
lfingers 7.12502
lthumb 9.23506 19.1464
rfemur -40.722 -2.03288 24.553
rtibia 83.9874
rfoot -0.253037 -3.17895
rtoes 1.94216
lfemur -38.9913 14.4486 -21.1769
ltibia 53.7437
lfoot -22.6318 3.52121
ltoes 2.71202
